<svg xmlns="http://www.w3.org/2000/svg" data-name="Layer 1" width="1066.10578" height="824.1997"><rect id="backgroundrect" width="100%" height="100%" x="0" y="0" fill="none" stroke="none"/><title>people</title><g class="currentLayer" style=""><title>Layer 1</title><polygon points="962.551 394.71 946.672 466.13 933.782 524.07 923.508 570.28 910.626 628.22 868.531 817.51 346.914 576.48 308.572 558.76 260.039 536.33 221.683 518.61 175.551 497.29 201.704 459.24 223.452 427.6 250.965 387.57 272.707 355.95 517.369 0 776.55 229.8 822.703 270.72 859.505 303.35 905.666 344.27 962.551 394.71" fill="#f2f2f2" id="svg_1"/><path d="M467.81488696289057,299.9446897009277 c-26.20687,-44.2815 -78.05507,-46.34521 -78.05507,-46.34521 s-50.52312,-6.46085 -82.93338,60.98042 c-30.209,62.86081 -71.90115,123.55421 -6.71211,138.26947 l11.775,-36.64918 l7.29222,39.37767 a255.06843,255.06843 0 0 0 27.892,0.47669 c69.81221,-2.25395 136.29778,0.6594400000000001 134.157,-24.39211 C478.3848869628906,398.3599397009277 493.0311469628906,342.5523497009277 467.81488696289057,299.9446897009277 z" fill="#2f2e41" id="svg_6"/><path d="M360.24713696289064,392.62217970092775 c9.03031,19.97526 14.724730000000001,43.78567 18.12479,70.23353 l72.49913,-4.5312 c-16.66786,-23.6189 -22.20214,-50.72822 -15.85919,-81.56152 z" fill="#ffb8b8" id="svg_7"/><path d="M360.24713696289064,392.62217970092775 c9.03031,19.97526 14.724730000000001,43.78567 18.12479,70.23353 l72.49913,-4.5312 c-16.66786,-23.6189 -22.20214,-50.72822 -15.85919,-81.56152 z" opacity="0.2" id="svg_8"/><path d="M23.872146962890625,772.9435097009277 s-37.5228,20.09888 -18.48195,37.25877 s44.19287,-22.71411 44.19287,-22.71411 z" fill="#ffb8b8" id="svg_9"/><polygon points="482.591 714.334 482.005 741.792 480.754 801.122 480.754 801.132 480.39 818.314 240.438 818.314 250.19 764.163 250.2 764.123 258.932 715.656 262.829 693.951 262.829 693.941 459.937 666.755 482.591 714.334" fill="#2f2e41" id="svg_10"/><path d="M482.58942696289057,714.3370697009277 l-0.58908,27.459 c-69.73517,-1.78991 -177.82675,-18.62329 -223.07067,-26.14509 l3.89676,-21.70432 l197.107,-27.18718 z" fill="#3f3d56" id="svg_11"/><circle cx="395.3639221191406" cy="355.23980712890625" r="56.639949798583984" fill="#ffb8b8" id="svg_12"/><path d="M504.1126069628906,744.9226397009278 s6.79679,61.17114 -33.984,56.63994 l-6.7968,-61.17114 L427.0822769628906,704.1418497009278 l-101.9519,-2.2656 L250.36564696289065,772.1098497009277 s-2.2656,-72.49913 6.79679,-79.29592 s29.45278,-22.656 29.45278,-22.656 v-11.328 L225.44406696289064,534.2220397009278 s36.24957,-74.76473 65.70234,-77.03033 l38.51516,-2.26559 s13.59359,-6.7968 13.59359,-9.0624 s-2.2656,-20.39038 9.06239,-15.85918 c0,0 1.01941,-23.24506 12.95916,-16.15372 c0,0 37.58646,29.45277 75.73905,1.2914 c0,0 17.78489,-3.26246 15.51929,5.79993 s0,15.85918 4.5312,15.85918 s24.92157,6.7968 24.92157,11.328 c0,0.97419 1.4727000000000001,10.3538 3.78337,24.46843 v0.022680000000000006 c8.40556,51.45164 27.935,165.81911 27.935,165.81911 S538.0965669628906,667.8923097009277 504.1126069628906,744.9226397009278 z" fill="#009688" id="svg_13"/><path d="M241.3032569628906,522.8940497009278 l-15.85919,11.328 l-144.99826,185.779 L3.4154869628906255,781.1721997009278 s43.04636,-6.79679 33.984,29.45277 L302.47439696289064,658.8299197009277 z" fill="#009688" id="svg_14"/><path d="M489.7711869628906,472.59774970092775 v0.022680000000000006 c-3.01286,17.717 -101.20407,14.02406 -114.79766,14.02406 s-24.92158,-2.2656 -38.51516,-11.328 s-6.7968,-20.39038 -6.7968,-20.39038 s11.57456,-8.81583 11.57456,-11.08143 s-2.2656,-20.39038 9.06239,-15.85919 c0,0 1.01941,-23.245 12.95915,-16.15372 c0,0 39.6055,31.47181 77.75809,3.31044 c0,0 17.78489,-3.26246 15.51929,5.79993 s0,15.85918 4.5312,15.85918 s24.92157,6.7968 24.92157,11.328 C485.98781696289063,449.10350970092776 487.46051696289067,458.4831197009277 489.7711869628906,472.59774970092775 z" fill="#3f3d56" id="svg_15"/><path d="M478.05822696289067,388.09097970092773 s-18.12478,-38.51516 -36.24956,-20.39038 s20.39038,45.312 20.39038,45.312 z" fill="#ffb8b8" id="svg_16"/><path d="M478.05822696289067,379.02858970092774 s-27.98762,35.36953 -36.64979,38.07515 c0,0 25.3218,100.12632 57.04017,127.31349 l18.12478,92.88951 s77.03033,-31.71837 58.90555,-83.82712 q-0.27187000000000006,-0.78163 -0.541,-1.55376 a513.98548,513.98548 0 0 0 -62.09845,-122.40839 z" fill="#009688" id="svg_17"/><polygon points="463.102 483.933 518.839 637.307 498.449 544.417 463.102 483.933" opacity="0.2" id="svg_18"/><polygon points="456.229 295.676 405.005 268.845 334.268 279.821 319.632 344.46 356.064 343.059 366.242 319.311 366.242 342.668 383.052 342.021 392.809 304.213 398.907 344.46 458.668 343.241 456.229 295.676" fill="#2f2e41" id="svg_19"/><path d="M940.1287769628906,644.3375597009277 L969.1910169628907,748.0088497009277 s-5.98872,91.827 21.95862,73.86082 c28.59982,-18.3856 17.96614,-95.81944 17.96614,-95.81944 L992.3638869628905,633.0434697009277 z" fill="#a0616a" id="svg_20"/><path d="M955.6581469628907,353.5147997009277 l23.99994,23.99994 V491.8673797009277 s14.11761,21.17641 11.29408,26.82345 s-5.647,5.64705 -2.8235200000000003,9.88233 s5.64705,7.0588 2.8235200000000003,9.88233 s-2.8235200000000003,9.88232 0,12.70584 s8.47057,7.05881 4.23529,11.29409 s-9.88233,1.4117600000000001 -4.23529,16.94113 s15.52937,19.76466 12.70585,25.4117 s-2.8235200000000003,19.76465 -2.8235200000000003,19.76465 l-60.70572,8.47057 L927.4228869628906,473.5144797009277 z" fill="#d0cde1" id="svg_21"/><polygon points="1003.658 623.161 933.07 625.985 935.893 655.632 998.011 644.338 1003.658 623.161" fill="#3f3d56" id="svg_22"/><polygon points="809.541 205.986 801.07 290.691 887.188 303.397 893.541 254.692 899.894 205.986 809.541 205.986" fill="#a0616a" id="svg_23"/><polygon points="809.541 205.527 801.07 290.233 887.188 302.939 893.541 254.233 899.894 205.527 809.541 205.527" opacity="0.1" id="svg_24"/><path d="M622.4825669628906,609.0435297009277 l47.99987,103.05855 s8.47057,47.99987 21.17642,49.41163 s25.41169,-49.41163 25.41169,-49.41163 l-16.94113,-26.82346 l-19.76465,-76.23509 z" fill="#a0616a" id="svg_25"/><path d="M951.0559369628907,819.3138497009278 H679.6874869628906 c2.15028,-34.01065 3.503,-54.97836 3.503,-54.97836 l3.604,-5.67348 l17.47475,-27.45889 L716.7468869628906,711.5982797009277 l4.351,-6.8445599999999995 l1.6152700000000002,-2.53384 l17.09113,-3.11943 L916.1265869628907,666.9271197009277 a215.42643,215.42643 0 0 0 12.32623,38.1093 c1.20133,2.73581 2.49348,5.47156 3.87652,8.17706 c4.43179,8.65158 9.84279,16.84886 16.27348,22.88581 c1.46375,1.37293 2.52379,5.03749 3.21026,10.67061 C953.5090569628907,760.5699897009277 953.0244469628906,786.2319197009277 951.0559369628907,819.3138497009278 z" fill="#2f2e41" id="svg_26"/><circle cx="856.8348999023438" cy="165.75059509277344" r="67.76451873779297" fill="#a0616a" id="svg_27"/><path d="M705.7764669628906,304.1031697009277 l-9.88233,-5.647 s-43.76459,29.647 -57.8822,95.99974 s-23.99993,83.2939 -23.99993,83.2939 s-14.11761,2.8235200000000003 -4.23529,12.70584 s9.88233,8.47057 1.4117600000000001,14.11761 s-14.11761,-5.647 -8.47056,5.647 s12.70585,8.47056 7.0588,15.52937 s-15.52937,7.0588 -9.88232,12.70585 s-5.647,18.35289 1.4117600000000001,23.99993 s9.88232,7.05881 9.88232,16.94113 a49.9927,49.9927 0 0 0 2.82353,16.94113 h73.41156 s-14.11761,-26.82345 -9.88232,-32.4705 s5.647,-11.29408 2.8235200000000003,-14.11761 s-11.29409,2.82353 -2.8235200000000003,-4.23528 s11.29408,-2.8235200000000003 8.47056,-11.29409 s-8.47056,-4.23528 -2.8235200000000003,-8.47056 s9.88233,-2.8235200000000003 7.05881,-7.05881 s-8.47057,-4.23528 -2.82353,-7.0588 s9.88233,0 8.47057,-7.05881 s-2.8235200000000003,-4.23528 0,-7.0588 s32.4705,-98.82327 32.4705,-101.64679 S705.7764669628906,304.1031697009277 705.7764669628906,304.1031697009277 z" fill="#d0cde1" id="svg_28"/><polygon points="691.659 590.691 602.718 596.338 625.306 617.514 687.424 618.926 691.659 590.691" fill="#3f3d56" id="svg_29"/><path d="M717.0705469628906,696.5727097009277 l-18.35289,33.88226 s55.05868,7.05881 74.82333,14.11761 s70.588,16.94113 70.588,16.94113 L856.8348869628907,712.1020797009278 z" fill="#3f3d56" id="svg_30"/><polygon points="878.011 712.102 893.541 758.69 955.658 745.984 948.599 702.22 878.011 712.102" fill="#3f3d56" id="svg_31"/><path d="M903.4229969628906,256.1032997009277 s-4.23529,-2.8235200000000003 -14.11761,2.8235200000000003 s-42.35283,8.47057 -57.8822,-8.47056 s-26.82346,-31.05874 -31.05874,-28.23522 s-7.05881,35.294 -7.05881,35.294 L779.1880269628906,268.8091497009277 l-83.29389,29.647 l7.0588,190.58772 l12.70585,43.76459 s-9.88232,33.88227 2.8235200000000003,53.64692 s-7.0588,26.82346 -7.0588,26.82346 s-4.23528,5.647 -1.4117600000000001,19.76465 s-2.8235200000000003,66.35276 -2.8235200000000003,66.35276 s119.99968,53.64692 245.6464,7.05881 l-14.11761,-53.64692 l-7.05881,-119.99968 s7.05881,-19.76465 5.64705,-28.23522 s42.35283,-127.05848 42.35283,-127.05848 s-7.05881,-59.294 -43.76459,-71.99981 s-42.35283,-25.41169 -42.35283,-25.41169 S910.4817969628906,261.7503397009277 903.4229969628906,256.1032997009277 z" fill="#d0cde1" id="svg_32"/><path d="M788.6004669628907,174.43131970092773 s-7.037,-10.55549 -4.33045,-21.92294 a66.44367,66.44367 0 0 0 1.89457,-19.7577 s5.68372,-18.40444 11.36745,-28.68928 s2.9771900000000002,-14.61529 20.84032,-17.86313 s10.55549,-26.524 57.6492,-1.35327 a13.81105,13.81105 0 0 0 14.34464,5.41307 c9.74353,-1.89457 13.262,11.6381 13.262,11.6381 s6.49569,-3.78914 8.93157,1.62393 s19.8043,-3.24882 19.8043,33.2894 s-19.76465,69.17629 -19.76465,69.17629 s1.4489400000000001,-61.46168 -30.75883,-67.68672 s-66.85142,-24.35881 -75.24168,-1.08261 S788.6004669628907,174.43131970092773 788.6004669628907,174.43131970092773 z" fill="#2f2e41" id="svg_33"/><ellipse cx="913.3052978515625" cy="180.5740966796875" rx="6.352920055389404" ry="8.470569610595703" fill="#a0616a" id="svg_34"/></g></svg>